<?xml version="1.0" encoding="UTF-8" standalone="no"?>
<!-- Created with Inkscape (http://www.inkscape.org/) -->

<svg
   version="1.1"
   id="svg1"
   width="237.33333"
   height="100"
   viewBox="0 0 237.33333 100"
   sodipodi:docname="Screenshot 2024-08-15 at 17.26.53.svg"
   xml:space="preserve"
   inkscape:version="1.3.2 (091e20e, 2023-11-25)"
   xmlns:inkscape="http://www.inkscape.org/namespaces/inkscape"
   xmlns:sodipodi="http://sodipodi.sourceforge.net/DTD/sodipodi-0.dtd"
   xmlns="http://www.w3.org/2000/svg"
   xmlns:svg="http://www.w3.org/2000/svg"><defs
     id="defs1" /><sodipodi:namedview
     id="namedview1"
     pagecolor="#ffffff"
     bordercolor="#000000"
     borderopacity="0"
     inkscape:showpageshadow="2"
     inkscape:pageopacity="0.0"
     inkscape:pagecheckerboard="0"
     inkscape:deskcolor="#ffffff"
     showguides="false"
     inkscape:zoom="2.8579752"
     inkscape:cx="101.99529"
     inkscape:cy="36.389399"
     inkscape:window-width="1312"
     inkscape:window-height="743"
     inkscape:window-x="63"
     inkscape:window-y="49"
     inkscape:window-maximized="0"
     inkscape:current-layer="g1" /><g
     inkscape:groupmode="layer"
     inkscape:label="Image"
     id="g1"><path
       style="fill:#000000"
       d="m 1.0175565,54.742469 c -0.17859502,-0.20719 0.057105,-0.427413 0.4574505,-0.427413 0.8174212,0 0.9760954,-0.27328 1.4718668,-2.534944 1.7227971,-7.859248 1.7327404,-7.956915 0.8108145,-7.964194 -0.1998656,-0.0016 -0.3511759,-0.114686 -0.3511759,-0.262512 0,-0.211349 0.3489332,-0.259164 1.8729384,-0.256648 1.94749,0.0032 2.6361269,0.328525 1.2426529,0.587027 -0.719776,0.133524 -0.6545119,-6.89e-4 -1.229693,2.528824 -0.5270343,2.317775 -0.7070615,2.108289 1.8118155,2.108289 2.4845206,0 2.1879018,0.343681 2.8666711,-3.3215 0.2148027,-1.159881 0.1211637,-1.377831 -0.5943937,-1.38348 -0.199185,-0.0016 -0.351176,-0.114726 -0.351176,-0.261441 0,-0.210383 0.3641825,-0.258667 1.9509774,-0.258667 1.586795,0 1.950978,0.04828 1.950978,0.258667 0,0.16793 -0.167852,0.258668 -0.478496,0.258668 -0.78447,0 -1.012385,0.25851 -1.227982,1.392825 -0.10993,0.578372 -0.257333,1.255286 -0.327563,1.504254 -0.07023,0.248967 -0.456945,1.990294 -0.859366,3.869614 -0.789335,3.686215 -0.7880053,3.72656 0.123019,3.732445 0.280156,0.0018 0.429215,0.09897 0.429215,0.279783 0,0.236569 -0.284911,0.269613 -1.9514866,0.226335 C 6.7133487,54.768509 6.0583788,54.524311 7.2342625,54.296293 8.0489269,54.13832 9.3400987,50.457949 8.9716442,49.344041 8.6615377,48.40653 4.6763758,49.064687 4.4960604,50.083192 c -0.068262,0.385577 -0.2794705,1.373583 -0.4693516,2.19557 -0.3852226,1.667612 -0.3282788,1.913904 0.4861955,2.102879 0.26374,0.06119 0.4316636,0.191723 0.3774839,0.293423 -0.1061606,0.199273 -3.7051682,0.261912 -3.8728317,0.06741 z M 16.197855,50.022966 c -2.086853,-2.757336 -2.043406,-7.793623 0.09075,-10.519546 0.845357,-1.079761 1.059505,-0.8964 0.300439,0.257246 -1.764305,2.68143 -1.769793,7.406928 -0.01171,10.078907 0.67801,1.030456 0.373122,1.1778 -0.379482,0.183393 z m 20.903818,-0.251661 c 0.330984,-0.507321 0.688396,-1.261014 0.794249,-1.674874 0.105852,-0.413859 0.25538,-0.939636 0.332283,-1.168393 0.596488,-1.774312 -0.123646,-5.842205 -1.31042,-7.402301 -0.472307,-0.62088 -0.240136,-0.882988 0.265715,-0.299976 2.293586,2.643446 2.440545,7.828842 0.303946,10.724626 -0.804759,1.090709 -1.119024,0.944821 -0.385773,-0.179082 z m -11.532056,-2.58904 c 0,-2.219039 0.109688,-2.101648 -1.963743,-2.101648 -1.202594,0 -1.469977,-0.0494 -1.469977,-0.271601 0,-0.222947 0.274004,-0.271601 1.529566,-0.271601 1.92151,0 1.904154,0.02013 1.904154,-2.209023 0,-2.431154 0.289931,-2.286971 0.345896,0.172014 0.0443,1.946475 0.0443,1.946475 1.72214,1.997868 1.331516,0.04078 1.677841,0.104925 1.677841,0.310742 0,0.205817 -0.346325,0.269957 -1.677841,0.310742 -1.677841,0.05139 -1.677841,0.05139 -1.72214,1.997867 -0.05744,2.523661 -0.345896,2.577567 -0.345896,0.06464 z m -6.865527,0.345126 c -0.381316,-0.470879 -0.354565,-0.999641 0.155849,-3.08051 0.965219,-3.935031 1.011495,-4.605954 0.318276,-4.614447 -0.159969,-0.002 -0.177624,-0.05926 -0.06023,-0.195453 0.260804,-0.302561 1.542556,-0.138048 1.501207,0.192681 -0.05531,0.442435 -0.294464,1.589932 -0.793412,3.806971 -0.660426,2.934556 -0.754608,3.76505 -0.44272,3.903894 0.286786,0.12767 0.723815,-0.311182 0.723815,-0.726836 0,-0.156494 0.07024,-0.284535 0.156078,-0.284535 0.267843,0 0.171485,0.466076 -0.200067,0.967708 -0.445453,0.601407 -0.888444,0.61136 -1.358801,0.03053 z m 13.030616,0.139007 c 0.814114,-0.230088 0.85843,-0.425784 0.85843,-3.790782 0,-3.140617 0,-3.140617 -0.711563,-3.140617 -0.434631,0 -0.674022,-0.07047 -0.615102,-0.181068 0.05305,-0.09959 0.305494,-0.181067 0.560977,-0.181067 0.255483,0 0.637089,-0.131179 0.848014,-0.29151 0.804677,-0.61166 0.854143,-0.407637 0.854143,3.52287 0,3.76572 0.01735,3.866048 0.702352,4.061382 0.171686,0.04896 -0.390195,0.08901 -1.248625,0.08901 -0.858431,0 -1.420312,-0.0397 -1.248626,-0.08822 z"
       id="path5" /><path
       style="fill:#000000"
       d="m 48.076968,52.129623 c 0,-0.231548 0.66447,-0.267059 4.997175,-0.267059 4.332706,0 4.997176,0.03551 4.997176,0.267059 0,0.231548 -0.66447,0.267059 -4.997176,0.267059 -4.332705,0 -4.997175,-0.03551 -4.997175,-0.267059 z m 0,-3.204706 c 0,-0.231548 0.66447,-0.267059 4.997175,-0.267059 4.332706,0 4.997176,0.03551 4.997176,0.267059 0,0.231548 -0.66447,0.267059 -4.997176,0.267059 -4.332705,0 -4.997175,-0.03551 -4.997175,-0.267059 z"
       id="GCN2" /><path
       style="fill:#000000"
       d="m 68.811114,53.247325 c -1.402864,-1.538606 -0.762677,-4.030255 1.395177,-5.430119 1.194911,-0.775175 6.135389,-0.649734 5.367012,0.136271 -0.05624,0.05753 -0.557306,0.134235 -1.113487,0.170462 -0.947536,0.06172 -1.004926,0.08705 -0.911055,0.402145 0.9413,3.159626 -2.780131,6.868169 -4.737647,4.721241 z m 2.595794,-0.279493 c 1.262401,-0.98497 1.913723,-3.78838 1.042949,-4.489044 -1.291405,-1.039124 -2.964633,0.234026 -3.431258,2.610823 -0.387952,1.976073 0.932237,3.0143 2.388309,1.878221 z"
       id="GCN3" /><path
       style="fill:#000000"
       d="m 80.846689,57.479543 c -2.558613,-3.235375 -2.53396,-9.717636 0.04907,-12.903495 0.800485,-0.987301 1.10509,-0.941352 0.405956,0.06124 -2.247174,3.222553 -2.253382,9.612745 -0.01244,12.801768 0.829531,1.180481 0.483943,1.212096 -0.442592,0.04049 z m 2.518062,-2.832071 c -0.103773,-0.190893 0.01681,-0.263557 0.654294,-0.394283 0.663641,-0.13609 0.589038,0.04664 1.325588,-3.246806 1.363165,-6.095328 1.347817,-5.913544 0.499838,-5.920105 -0.185766,-0.0014 -0.315089,-0.100456 -0.315089,-0.241254 0,-0.312918 4.612835,-0.349883 5.510383,-0.04416 3.746435,1.27612 2.2202,8.266124 -2.132839,9.768191 -0.747112,0.2578 -5.408804,0.323757 -5.542175,0.07841 z m 5.906968,-0.782164 c 3.675757,-2.147023 3.716898,-8.564179 0.05601,-8.735845 -1.741812,-0.08168 -1.574144,-0.338665 -2.468222,3.783101 -0.42646,1.966011 -0.837181,3.794586 -0.912712,4.0635 -0.368857,1.31324 -0.291059,1.391705 1.298075,1.309218 1.105847,-0.0574 1.571196,-0.153824 2.026853,-0.419974 z m 20.834961,0.77184 c -0.0474,-0.08719 0.0907,-0.239403 0.30682,-0.338244 1.02505,-0.468731 1.18983,-0.655466 1.9891,-2.254209 0.14101,-0.282056 0.76909,-1.471052 1.39573,-2.642214 0.62664,-1.171162 1.13934,-2.155544 1.13934,-2.187516 0,-0.03197 0.28358,-0.56111 0.63018,-1.175862 0.3466,-0.614752 0.63018,-1.177538 0.63018,-1.250637 0,-0.237733 0.49255,-0.646846 0.64102,-0.532427 0.15185,0.117033 0.51931,3.778073 0.84213,8.390301 0.0949,1.355982 0.25625,1.67171 0.85426,1.67171 0.19703,0 0.32334,0.09527 0.32334,0.243869 0,0.207726 -0.24387,0.23722 -1.64547,0.199013 -1.62005,-0.04416 -2.06711,-0.218819 -1.20795,-0.471928 0.69153,-0.203723 0.74857,-0.379089 0.57327,-1.762464 -0.2576,-2.032907 -4.16167,-1.687259 -4.16167,0.368455 0,0.08215 -0.063,0.149371 -0.14004,0.149371 -0.28648,0 -0.1571,1.072265 0.14004,1.160605 0.15404,0.0458 0.28008,0.197443 0.28008,0.33699 0,0.295345 -2.43295,0.384748 -2.59036,0.09519 z m 6.3006,-4.509734 c -0.0569,-0.365906 -0.14299,-1.34591 -0.19135,-2.177785 -0.0667,-1.148311 -0.13548,-1.512499 -0.28543,-1.512499 -0.17217,0 -0.6709,0.792423 -0.95192,1.512499 -0.0513,0.131349 -0.35325,0.704507 -0.67109,1.273685 -0.99249,1.777348 -1.03732,1.692214 0.85342,1.620547 1.3498,-0.05116 1.3498,-0.05116 1.24637,-0.716447 z m 3.57181,4.429452 c 0,-0.147375 0.13153,-0.238816 0.34351,-0.238816 0.86841,0 0.96567,-0.175927 1.52448,-2.757552 0.6147,-2.839878 0.76834,-3.523887 0.93618,-4.168105 0.51673,-1.983285 0.47284,-2.301105 -0.31847,-2.306115 -0.248,-0.0016 -0.38511,-0.08746 -0.38511,-0.241254 0,-0.304617 4.53685,-0.347758 5.56671,-0.05293 0.73261,0.209725 1.85538,1.341512 1.85538,1.870268 0,0.172269 0.063,0.357494 0.14004,0.411613 0.19446,0.136632 0.17564,2.053173 -0.028,2.847317 -0.54858,2.139782 -2.14709,4.003122 -3.97499,4.633537 -1.00312,0.345963 -5.65977,0.347642 -5.65977,0.002 z m 5.88166,-0.627682 c 2.99787,-1.728495 3.86154,-8.234718 1.16048,-8.742204 -1.50425,-0.282625 -2.84095,-0.05292 -2.84095,0.488198 0,0.143942 -0.0617,0.481734 -0.13704,0.750648 -0.0754,0.268914 -0.42668,1.850185 -0.7807,3.513935 -0.35401,1.66375 -0.70914,3.220736 -0.78917,3.459969 -0.29019,0.867486 -0.12431,0.967836 1.46444,0.885925 0.98792,-0.05093 1.58499,-0.161617 1.92294,-0.356471 z m -22.05426,-1.199647 c -0.0465,-0.08559 0.4854,-0.789011 1.18207,-1.563157 1.11752,-1.241804 1.26666,-1.473025 1.26666,-1.963702 0,-0.604409 -0.47943,-1.296812 -1.12671,-1.627204 -0.11201,-0.05718 0.0484,-0.06273 0.3565,-0.01233 2.00616,0.328142 1.88497,2.232526 -0.24507,3.850864 -0.77885,0.591743 -0.69221,0.834309 0.298,0.834309 0.69516,0 0.85734,-0.0557 1.04296,-0.358224 0.21735,-0.354251 0.21987,-0.351791 0.22714,0.221782 0.005,0.387669 -0.0661,0.612052 -0.21417,0.676645 -0.36371,0.158672 -2.69589,0.109324 -2.78738,-0.05898 z m 36.61836,-0.02529 c 0,-0.0995 0.53565,-0.768351 1.19034,-1.486328 1.50482,-1.650299 1.60628,-3.586706 0.18793,-3.586706 -0.0905,0 -0.12894,-0.04053 -0.0854,-0.09007 0.14069,-0.159944 1.16049,0.233914 1.4789,0.571164 0.709,0.750957 0.40072,1.776345 -0.88286,2.936533 -1.1742,1.06132 -1.18317,1.199478 -0.0779,1.199478 0.7098,0 0.84384,-0.04671 0.92034,-0.320733 0.0492,-0.176403 0.14802,-0.279642 0.21949,-0.22942 0.18526,0.130169 0.1608,0.769832 -0.0381,0.995942 -0.22608,0.257029 -2.91282,0.266381 -2.91282,0.01014 z m -36.59698,-3.427858 c -0.36142,-0.410905 0.16505,-1.499462 0.71347,-1.47519 0.19214,0.0085 0.17704,0.0472 -0.0716,0.183541 -0.31971,0.1753 -0.42568,0.664447 -0.18117,0.836255 0.0737,0.05175 0.0984,0.199273 0.055,0.327817 -0.0822,0.243428 -0.35455,0.31081 -0.51572,0.127577 z m 36.52864,-0.206267 c -0.17049,-0.610725 0.20711,-1.098995 0.44713,-0.578177 0.11135,0.241604 0.16818,0.540824 0.12629,0.664933 -0.1114,0.330039 -0.4723,0.275436 -0.57342,-0.08676 z m 0.48846,-1.135393 c 0,-0.07937 0.12604,-0.144305 0.28008,-0.144305 0.15404,0 0.28008,0.02747 0.28008,0.06104 0,0.03357 -0.12604,0.09851 -0.28008,0.144306 -0.15404,0.0458 -0.28008,0.01833 -0.28008,-0.06104 z M 94.771987,45.959498 c 0,-0.204699 0.420118,-0.238816 2.940829,-0.238816 2.520714,0 2.940824,0.03412 2.940824,0.238816 0,0.204699 -0.42011,0.238816 -2.940824,0.238816 -2.520711,0 -2.940829,-0.03412 -2.940829,-0.238816 z m 8.402363,-0.08375 c 0,-0.464488 4.23616,-0.421339 4.31472,0.04395 0.0432,0.255714 -0.13224,0.278619 -2.13384,0.278619 -2.09686,0 -2.18088,-0.01243 -2.18088,-0.322568 z m 28.28798,0.08052 c 0,-0.325999 5.75112,-0.28367 5.84674,0.04303 0.0454,0.155011 -0.59454,0.199013 -2.89424,0.199013 -2.5486,0 -2.9525,-0.03311 -2.9525,-0.242046 z m 8.28883,-0.03657 c 0.0786,-0.465288 4.31472,-0.508437 4.31472,-0.04395 0,0.310141 -0.084,0.322568 -2.18088,0.322568 -2.00159,0 -2.17701,-0.02291 -2.13384,-0.278619 z m -35.59653,-1.950328 c 0,-0.08757 0.18905,-0.159211 0.42012,-0.159211 0.42012,0 0.42012,0 0.42012,-2.149342 0,-2.149342 0,-2.149342 -0.42012,-2.149342 -0.23107,0 -0.42012,-0.07164 -0.42012,-0.159211 0,-0.08756 0.20796,-0.15921 0.46213,-0.15921 0.25417,0 0.53226,-0.07973 0.61798,-0.17718 0.36747,-0.417779 0.46033,0.06947 0.46033,2.415523 0,2.378762 0,2.378762 0.42011,2.378762 0.23107,0 0.42012,0.07165 0.42012,0.159211 0,0.09365 -0.49014,0.15921 -1.19033,0.15921 -0.7002,0 -1.19034,-0.06556 -1.19034,-0.15921 z m 36.5503,0.01009 c 0,-0.08202 0.20481,-0.171574 0.45513,-0.199013 0.72132,-0.07907 0.71876,-4.160503 -0.003,-4.239479 -0.59359,-0.06498 -0.44235,-0.347911 0.18597,-0.347911 0.26503,0 0.48188,-0.07164 0.48188,-0.159211 0,-1.791937 0.42047,0.320973 0.45148,2.26875 0.0387,2.427961 0.0387,2.427961 0.49378,2.477851 0.95905,0.105128 0.39698,0.348136 -0.80522,0.348136 -0.6932,0 -1.26036,-0.0671 -1.26036,-0.149123 z M 88.895963,42.14482 c -0.767441,-0.372512 -1.167043,-0.350461 -1.634041,0.09017 -0.105669,0.0997 -0.197656,0.101655 -0.250034,0.0053 -0.376692,-0.69294 1.188433,-1.135127 2.24896,-0.635388 0.72603,0.342118 0.72603,0.342118 1.216343,0.01322 0.628463,-0.421564 0.764428,-0.271228 0.255139,0.282105 -0.571644,0.62108 -0.955416,0.672194 -1.836367,0.244585 z m 27.862217,0.283432 c -0.11553,-0.04394 -0.48345,-0.220024 -0.8176,-0.391292 -0.60322,-0.309183 -0.61085,-0.309175 -1.07359,0.0012 -0.60607,0.406542 -0.73448,0.24223 -0.25518,-0.326535 0.46333,-0.549812 1.07453,-0.589671 1.87984,-0.122591 0.59298,0.343931 0.98233,0.307848 1.42272,-0.131851 0.43208,-0.431405 0.45635,-0.04319 0.027,0.431364 -0.44009,0.486383 -0.84168,0.669558 -1.18316,0.539675 z m 9.38265,0 c -0.11553,-0.04394 -0.48345,-0.220024 -0.8176,-0.391292 -0.60703,-0.311134 -0.60796,-0.311116 -1.10296,0.02092 -0.64185,0.430548 -0.75646,0.283467 -0.24865,-0.319124 0.46288,-0.549287 1.19663,-0.643246 1.72674,-0.221113 0.43606,0.347242 1.2073,0.349708 1.5424,0.0049 0.14996,-0.154293 0.30818,-0.215184 0.3516,-0.135313 0.19756,0.363421 -0.99131,1.216036 -1.45153,1.040988 z"
       id="GCN4" /><path
       style="fill:#000000"
       d="m 203.62028,57.959947 c 2.6174,-3.389431 2.65369,-11.24998 0.0661,-14.313869 -0.48826,-0.578125 -0.56433,-0.800064 -0.27423,-0.800064 0.4617,0 1.96965,2.349835 2.40552,3.748522 1.20014,3.851126 0.54134,8.560417 -1.56559,11.191187 -0.89273,1.114692 -1.48393,1.277725 -0.63178,0.174224 z m -27.6066,-3.832929 c -0.0457,-0.503071 -0.15671,-1.721094 -0.24675,-2.706716 -0.09,-0.985623 -0.16372,-2.273926 -0.16372,-2.862897 0,-2.50872 -0.31086,-4.151404 -0.80644,-4.261414 -1.15838,-0.257141 -0.43918,-0.552054 1.34628,-0.552054 1.82955,0 2.41142,0.300157 1.10799,0.571559 -0.30195,0.06287 -0.5493,0.229104 -0.57776,0.388277 -0.0737,0.412032 0.31646,7.452458 0.43641,7.875693 0.0721,0.254505 0.6911,-0.477614 0.6911,-0.817433 0,-0.09668 0.053,-0.201915 0.11773,-0.233856 0.0648,-0.03194 0.35616,-0.56768 0.64757,-1.190531 0.29141,-0.622851 0.61233,-1.250057 0.71314,-1.393792 0.10081,-0.143735 0.28608,-0.496538 0.41172,-0.784008 0.12564,-0.28747 0.26441,-0.561872 0.30837,-0.609784 0.86637,-0.944192 1.06572,-3.082184 0.30316,-3.251459 -1.14138,-0.253369 -0.46297,-0.550123 1.26559,-0.553606 1.82626,-0.0037 2.33987,0.264885 1.13803,0.595076 -0.65202,0.179135 -0.73515,1.950123 -0.29767,6.341616 0.19247,1.932151 0.36468,2.258233 0.71556,1.354939 0.12103,-0.311589 0.34014,-0.762528 0.4869,-1.002086 0.14677,-0.239558 0.44368,-0.788363 0.65981,-1.219568 0.21612,-0.431204 0.58885,-1.176012 0.82829,-1.655128 0.23944,-0.479116 0.48635,-0.949521 0.5487,-1.045344 0.25802,-0.396563 1.10039,-2.212223 1.10039,-2.371818 0,-0.09491 -0.21191,-0.254548 -0.47091,-0.354761 -0.94679,-0.36633 -0.56478,-0.647775 0.86333,-0.636073 1.37804,0.01129 1.86611,0.335542 0.90258,0.59963 -0.51831,0.142062 -1.06349,0.784493 -1.42068,1.674122 -0.14428,0.359337 -0.31629,0.65334 -0.38226,0.65334 -0.066,0 -0.11994,0.07996 -0.11994,0.177686 0,0.09773 -0.18039,0.494844 -0.40086,0.882482 -0.22047,0.387638 -0.54832,0.993686 -0.72856,1.346774 -0.4408,0.863542 -1.07951,2.130791 -1.28949,2.558442 -0.0941,0.191647 -0.20653,0.387649 -0.24983,0.43556 -0.0433,0.04791 -0.18391,0.322315 -0.31245,0.609784 -1.28506,2.873812 -1.64485,2.937081 -1.80184,0.316858 -0.34991,-5.839908 -0.50951,-6.690635 -1.01547,-5.41291 -0.12332,0.311425 -0.45843,0.974066 -0.74469,1.472535 -0.28625,0.498469 -0.52046,0.988474 -0.52046,1.0889 0,0.100426 -0.054,0.182593 -0.11994,0.182593 -0.066,0 -0.2418,0.294003 -0.39073,0.65334 -0.14894,0.359337 -0.44449,0.966944 -0.65678,1.350236 -0.2123,0.383293 -0.48261,0.892898 -0.6007,1.132456 -0.64288,1.304185 -0.81932,1.558683 -1.08525,1.565349 -0.0585,0.0015 -0.1438,-0.408937 -0.18947,-0.912009 z m -28.1579,0.532644 c 0.0361,-0.120337 0.30421,-0.272934 0.5957,-0.339104 0.57455,-0.130425 0.90415,-0.511358 1.03423,-1.195328 0.0849,-0.446315 1.05876,-4.827934 1.3166,-5.923616 0.62078,-2.637896 0.60268,-2.961808 -0.16547,-2.961808 -0.32128,0 -0.46655,-0.07467 -0.42368,-0.21778 0.10377,-0.346425 3.88517,-0.384245 3.88517,-0.03886 0,0.14929 -0.14773,0.257634 -0.35318,0.259018 -0.93952,0.0063 -1.13724,0.205486 -1.38138,1.391413 -0.069,0.335381 -0.23427,1.080189 -0.36717,1.655128 -0.1329,0.574939 -0.24415,1.143345 -0.24722,1.263124 -0.0318,1.238847 4.38545,0.095 4.70967,-1.219568 0.69645,-2.82379 0.67841,-3.092476 -0.20761,-3.092476 -0.29223,0 -0.42948,-0.07717 -0.38736,-0.21778 0.0468,-0.156101 0.62649,-0.228626 2.04694,-0.256075 1.68821,-0.03262 1.9686,-3.69e-4 1.89318,0.21778 -0.0487,0.140841 -0.23991,0.257145 -0.42493,0.258454 -0.96807,0.0068 -1.10437,0.24233 -1.66254,2.872317 -0.10168,0.479116 -0.25688,1.184723 -0.34489,1.568016 -0.088,0.383293 -0.21921,0.971299 -0.29156,1.30668 -0.21175,0.981565 -0.65128,2.832327 -0.80422,3.38637 -0.16692,0.604725 -0.0416,0.789444 0.64097,0.944378 1.06699,0.242211 0.42735,0.461688 -1.48394,0.509174 -1.6761,0.04164 -1.96264,0.0098 -1.96264,-0.21778 0,-0.175263 0.14931,-0.266541 0.43599,-0.266541 0.73689,0 1.06012,-0.404483 1.34934,-1.688526 0.14695,-0.652394 0.33514,-1.426939 0.4182,-1.721212 0.44132,-1.563518 0.35162,-1.643026 -1.85034,-1.640091 -2.32718,0.0031 -2.34013,0.0089 -2.55747,1.139404 -0.0911,0.473827 -0.2328,1.155507 -0.31491,1.514844 -0.49006,2.144594 -0.47216,2.294911 0.28859,2.422443 1.00049,0.167721 0.16832,0.41334 -1.55086,0.457747 -1.46928,0.03795 -1.88405,-4.53e-4 -1.83321,-0.169746 z m 21.27373,-3.725295 c -0.0607,-0.06732 0.0583,-0.344728 0.26426,-0.616453 1.908,-2.516766 1.96496,-7.455921 0.11592,-10.051253 -0.66729,-0.936618 -0.52659,-1.169872 0.22352,-0.370547 1.92795,2.054456 2.36385,6.376736 0.92241,9.146236 -0.48267,0.927362 -1.3861,2.04741 -1.52611,1.892017 z m 28.8799,-0.0029 c -0.0601,-0.06674 0.0963,-0.381277 0.34763,-0.698982 0.43977,-0.555929 0.66457,-1.021718 1.12644,-2.334019 0.73123,-2.077624 0.0742,-6.357932 -1.21189,-7.895045 -0.63614,-0.760307 -0.29303,-0.789979 0.40366,-0.03491 1.88008,2.037655 2.31769,6.348556 0.92401,9.102631 -0.40316,0.796695 -1.44733,2.018505 -1.58985,1.860322 z m -34.58485,-0.301196 c -2.4623,-3.131081 -2.57581,-7.746222 -0.25895,-10.52833 0.83382,-1.001248 1.11504,-0.940835 0.40551,0.08711 -1.94124,2.812401 -1.88731,7.810247 0.10928,10.129141 0.37334,0.4336 0.41149,0.540754 0.19068,0.535453 -0.15184,-0.0036 -0.35277,-0.104164 -0.44652,-0.223376 z m 28.44616,-0.486733 c -1.63651,-2.122044 -2.00572,-5.743518 -0.8611,-8.446259 0.39496,-0.932582 1.61779,-2.482463 1.80106,-2.282761 0.0707,0.07708 0.0554,0.194679 -0.0342,0.261337 -2.10141,1.564536 -2.37719,7.595016 -0.47389,10.362567 0.7121,1.035444 0.35296,1.122849 -0.4319,0.105116 z m -26.31365,-2.371858 c -0.23464,-0.331075 -0.30739,-0.608538 -0.23983,-0.914677 0.26842,-1.21629 0.40623,-1.830935 0.85811,-3.827041 0.50136,-2.214667 0.51585,-2.623129 0.0931,-2.623129 -0.13221,0 -0.24038,-0.0784 -0.24038,-0.174224 0,-0.09582 0.36141,-0.174224 0.80315,-0.174224 0.89798,0 0.85485,-0.149376 0.45276,1.568017 -0.18977,0.81053 -0.36691,1.616815 -0.87343,3.975693 -0.29913,1.393069 -0.37446,2.026513 -0.25656,2.157378 0.24796,0.275216 0.6397,0.03827 0.84296,-0.509882 0.13878,-0.374257 0.19389,-0.415762 0.24376,-0.183591 0.21267,0.990077 -1.09395,1.537736 -1.68362,0.70568 z m 28.9099,0.072 c -0.37644,-0.44474 -0.41713,-0.785833 -0.18943,-1.587974 0.0835,-0.294272 0.40428,-1.665251 0.71277,-3.046618 0.57268,-2.564432 0.56864,-2.791558 -0.0498,-2.799588 -0.11301,-0.0015 -0.16182,-0.08107 -0.10846,-0.176892 0.32673,-0.58678 1.66235,-0.144155 1.47619,0.48921 -0.17517,0.595957 -1.06934,4.577178 -1.25647,5.594312 -0.0779,0.423329 -0.17435,0.806041 -0.21438,0.850472 -0.11312,0.125552 0.22142,0.731863 0.40382,0.731863 0.27218,0 0.61114,-0.47626 0.61114,-0.858675 0,-0.198491 0.0706,-0.360893 0.15697,-0.360893 0.26012,0 0.17736,0.524219 -0.16766,1.062005 -0.39571,0.616811 -0.90722,0.655054 -1.37467,0.102778 z"
       id="GCN5" /><path
       style="fill:#000000"
       d="m 1.0175565,54.742469 c -0.17859502,-0.20719 0.057105,-0.427413 0.4574505,-0.427413 0.8174212,0 0.9760954,-0.27328 1.4718668,-2.534944 1.7227971,-7.859248 1.7327404,-7.956915 0.8108145,-7.964194 -0.1998656,-0.0016 -0.3511759,-0.114686 -0.3511759,-0.262512 0,-0.211349 0.3489332,-0.259164 1.8729384,-0.256648 1.94749,0.0032 2.6361269,0.328525 1.2426529,0.587027 -0.719776,0.133524 -0.6545119,-6.89e-4 -1.229693,2.528824 -0.5270343,2.317775 -0.7070615,2.108289 1.8118155,2.108289 2.4845206,0 2.1879018,0.343681 2.8666711,-3.3215 0.2148027,-1.159881 0.1211637,-1.377831 -0.5943937,-1.38348 -0.199185,-0.0016 -0.351176,-0.114726 -0.351176,-0.261441 0,-0.210383 0.3641825,-0.258667 1.9509774,-0.258667 1.586795,0 1.950978,0.04828 1.950978,0.258667 0,0.16793 -0.167852,0.258668 -0.478496,0.258668 -0.78447,0 -1.012385,0.25851 -1.227982,1.392825 -0.10993,0.578372 -0.257333,1.255286 -0.327563,1.504254 -0.07023,0.248967 -0.456945,1.990294 -0.859366,3.869614 -0.789335,3.686215 -0.7880053,3.72656 0.123019,3.732445 0.280156,0.0018 0.429215,0.09897 0.429215,0.279783 0,0.236569 -0.284911,0.269613 -1.9514866,0.226335 C 6.7133487,54.768509 6.0583788,54.524311 7.2342625,54.296293 8.0489269,54.13832 9.3400987,50.457949 8.9716442,49.344041 8.6615377,48.40653 4.6763758,49.064687 4.4960604,50.083192 c -0.068262,0.385577 -0.2794705,1.373583 -0.4693516,2.19557 -0.3852226,1.667612 -0.3282788,1.913904 0.4861955,2.102879 0.26374,0.06119 0.4316636,0.191723 0.3774839,0.293423 -0.1061606,0.199273 -3.7051682,0.261912 -3.8728317,0.06741 z M 16.197855,50.022966 c -2.086853,-2.757336 -2.043406,-7.793623 0.09075,-10.519546 0.845357,-1.079761 1.059505,-0.8964 0.300439,0.257246 -1.764305,2.68143 -1.769793,7.406928 -0.01171,10.078907 0.67801,1.030456 0.373122,1.1778 -0.379482,0.183393 z m 20.903818,-0.251661 c 0.330984,-0.507321 0.688396,-1.261014 0.794249,-1.674874 0.105852,-0.413859 0.25538,-0.939636 0.332283,-1.168393 0.596488,-1.774312 -0.123646,-5.842205 -1.31042,-7.402301 -0.472307,-0.62088 -0.240136,-0.882988 0.265715,-0.299976 2.293586,2.643446 2.440545,7.828842 0.303946,10.724626 -0.804759,1.090709 -1.119024,0.944821 -0.385773,-0.179082 z m -11.532056,-2.58904 c 0,-2.219039 0.109688,-2.101648 -1.963743,-2.101648 -1.202594,0 -1.469977,-0.0494 -1.469977,-0.271601 0,-0.222947 0.274004,-0.271601 1.529566,-0.271601 1.92151,0 1.904154,0.02013 1.904154,-2.209023 0,-2.431154 0.289931,-2.286971 0.345896,0.172014 0.0443,1.946475 0.0443,1.946475 1.72214,1.997868 1.331516,0.04078 1.677841,0.104925 1.677841,0.310742 0,0.205817 -0.346325,0.269957 -1.677841,0.310742 -1.677841,0.05139 -1.677841,0.05139 -1.72214,1.997867 -0.05744,2.523661 -0.345896,2.577567 -0.345896,0.06464 z m -6.865527,0.345126 c -0.381316,-0.470879 -0.354565,-0.999641 0.155849,-3.08051 0.965219,-3.935031 1.011495,-4.605954 0.318276,-4.614447 -0.159969,-0.002 -0.177624,-0.05926 -0.06023,-0.195453 0.260804,-0.302561 1.542556,-0.138048 1.501207,0.192681 -0.05531,0.442435 -0.294464,1.589932 -0.793412,3.806971 -0.660426,2.934556 -0.754608,3.76505 -0.44272,3.903894 0.286786,0.12767 0.723815,-0.311182 0.723815,-0.726836 0,-0.156494 0.07024,-0.284535 0.156078,-0.284535 0.267843,0 0.171485,0.466076 -0.200067,0.967708 -0.445453,0.601407 -0.888444,0.61136 -1.358801,0.03053 z m 13.030616,0.139007 c 0.814114,-0.230088 0.85843,-0.425784 0.85843,-3.790782 0,-3.140617 0,-3.140617 -0.711563,-3.140617 -0.434631,0 -0.674022,-0.07047 -0.615102,-0.181068 0.05305,-0.09959 0.305494,-0.181067 0.560977,-0.181067 0.255483,0 0.637089,-0.131179 0.848014,-0.29151 0.804677,-0.61166 0.854143,-0.407637 0.854143,3.52287 0,3.76572 0.01735,3.866048 0.702352,4.061382 0.171686,0.04896 -0.390195,0.08901 -1.248625,0.08901 -0.858431,0 -1.420312,-0.0397 -1.248626,-0.08822 z"
       id="GCN1" /></g></svg>
