<?xml version="1.0" encoding="UTF-8" standalone="no"?>
<!-- Created with Inkscape (http://www.inkscape.org/) -->

<svg
   width="299mm"
   height="100mm"
   viewBox="0 0 299 100"
   version="1.1"
   id="svg1"
   sodipodi:docname="GsageFormula.svg"
   inkscape:version="1.3.2 (091e20e, 2023-11-25)"
   xmlns:inkscape="http://www.inkscape.org/namespaces/inkscape"
   xmlns:sodipodi="http://sodipodi.sourceforge.net/DTD/sodipodi-0.dtd"
   xmlns="http://www.w3.org/2000/svg"
   xmlns:svg="http://www.w3.org/2000/svg">
  <sodipodi:namedview
     id="namedview1"
     pagecolor="#ffffff"
     bordercolor="#000000"
     borderopacity="0.25"
     inkscape:showpageshadow="2"
     inkscape:pageopacity="0.0"
     inkscape:pagecheckerboard="0"
     inkscape:deskcolor="#d1d1d1"
     inkscape:document-units="mm"
     inkscape:zoom="0.42966615"
     inkscape:cx="524.82608"
     inkscape:cy="225.75667"
     inkscape:window-width="1920"
     inkscape:window-height="1027"
     inkscape:window-x="0"
     inkscape:window-y="25"
     inkscape:window-maximized="1"
     inkscape:current-layer="layer1" />
  <defs
     id="defs1" />
  <g
     inkscape:label="Layer 1"
     inkscape:groupmode="layer"
     id="layer1">
    <path
       id="path18"
       style="fill:#000000;stroke-width:0.64705"
       d="m 174.90495,30.122924 c -3.82744,0.08758 -7.56777,4.062498 -7.53254,10.035606 0.0261,4.448297 2.07459,7.897394 5.53249,9.31532 2.84464,1.166444 5.70174,0.336617 7.53957,-2.189524 1.014,-1.39373 1.48959,-3.738899 0.75795,-3.738899 -0.17965,0 -0.62876,0.732094 -0.99765,1.626856 -0.77976,1.891173 -2.79562,3.472583 -4.43022,3.475213 -2.69178,0.0053 -5.07537,-3.254528 -5.07537,-6.938223 v -1.87421 h 5.38091 c 3.80022,0 5.42834,-0.162536 5.54068,-0.55178 0.31495,-1.092829 -0.3899,-4.635108 -1.15986,-5.827851 -1.52253,-2.358583 -3.5511,-3.378428 -5.55596,-3.332508 z m 16.09331,0.107305 c -3.41928,-0.0079 -6.5426,3.095989 -5.49959,5.743559 0.36312,0.921772 0.69355,1.108609 1.7486,0.990784 1.14369,-0.127556 1.31585,-0.32828 1.4266,-1.656733 0.0866,-1.040597 -0.0685,-1.596848 -0.5006,-1.788577 -0.90171,-0.400211 -0.77599,-0.880033 0.39365,-1.49638 2.8574,-1.505743 5.65329,0.345454 6.08009,4.025678 0.2423,2.089267 0.33253,2.022333 -3.4913,2.617613 -4.10164,0.638519 -6.81578,3.332587 -6.81805,6.771059 -0.002,1.884625 1.17554,3.472583 3.05533,4.123541 2.72564,0.94389 6.00903,0.114932 7.02958,-1.775006 0.48802,-0.903756 0.52548,-0.890922 1.21978,0.429484 0.59317,1.128202 0.98189,1.361828 2.26447,1.361828 2.03474,0 2.93745,-1.182513 3.18574,-4.171092 0.16032,-1.928967 0.0823,-2.324076 -0.45946,-2.324076 -0.48079,0 -0.65336,0.435453 -0.65336,1.654024 0,1.966471 -0.606,3.449412 -1.41016,3.449412 -0.7899,0 -0.94896,-1.14372 -1.09405,-7.886873 -0.0884,-4.107866 -0.29703,-6.110843 -0.71565,-6.868922 -0.89507,-1.620807 -2.92237,-2.880695 -5.07535,-3.154481 -0.22944,-0.02919 -0.45832,-0.04445 -0.68627,-0.04471 z m -33.44871,0.326176 c -1.64497,0 -2.20813,0.24959 -3.51363,1.55482 l -1.55469,1.553452 -1.26678,-1.553452 c -1.133,-1.389523 -1.49662,-1.554846 -3.42665,-1.553452 -2.24383,0.0018 -4.56816,1.183118 -5.02248,2.552389 -0.41455,1.249447 -0.94599,0.727386 -0.94599,-0.929636 0,-1.601555 -0.0232,-1.622595 -1.70509,-1.617335 -0.9376,0.0026 -2.11121,0.131501 -2.6076,0.28541 -1.20513,0.373517 -1.16559,1.562973 0.0516,1.562973 1.70798,0 1.88396,0.815545 1.76503,8.181831 l -0.11165,6.89609 -1.30321,0.443054 c -0.71697,0.244067 -1.30439,0.713842 -1.30439,1.043805 0,0.452654 1.03479,0.600725 4.21164,0.600725 3.2765,0 4.21166,-0.140181 4.21166,-0.629261 0,-0.345822 -0.58622,-0.824013 -1.30321,-1.06282 l -1.30323,-0.43356 v -5.863173 c 0,-5.236805 0.0898,-6.003668 0.84374,-7.172005 1.21182,-1.877866 3.1671,-3.090966 4.40436,-2.73181 1.74014,0.505123 2.21108,2.686336 2.08351,9.657803 l -0.11165,6.113262 -1.30437,0.432192 c -0.71699,0.237491 -1.30323,0.714289 -1.30323,1.060111 0,0.489107 0.93516,0.629261 4.21166,0.629261 3.32625,0 4.21164,-0.135447 4.21164,-0.644225 0,-0.368967 -0.60023,-0.77428 -1.40427,-0.948651 l -1.40311,-0.305794 V 42.08705 c 0,-7.390482 0.81162,-9.451529 4.09062,-10.383558 0.84313,-0.239596 1.30933,-0.04603 2.10582,0.875273 1.00477,1.16305 1.02353,1.300364 1.02353,8.141013 v 6.958631 l -1.40427,0.305794 c -0.80406,0.174371 -1.40429,0.579684 -1.40429,0.948651 0,0.508805 0.88539,0.644225 4.21166,0.644225 3.27648,0 4.21164,-0.140181 4.21164,-0.629261 0,-0.345822 -0.58624,-0.822883 -1.30321,-1.060111 l -1.30321,-0.430851 -0.20921,-6.942299 c -0.11461,-3.818274 -0.36211,-7.315421 -0.54994,-7.771363 -0.52875,-1.28369 -2.4147,-2.186789 -4.56888,-2.186789 z m 48.34694,0.0079 c -0.9376,0.0026 -2.11123,0.131502 -2.6076,0.285411 -1.20511,0.373516 -1.16563,1.562972 0.0516,1.562972 1.70796,0 1.88281,0.815519 1.76388,8.181805 l -0.11052,6.89609 -1.30439,0.443081 c -0.71697,0.244066 -1.30321,0.713815 -1.30321,1.043779 0,0.452654 1.03476,0.600724 4.21164,0.600724 3.27649,0 4.21166,-0.14018 4.21166,-0.62926 0,-0.345823 -0.58742,-0.824014 -1.3044,-1.062821 l -1.3032,-0.43356 v -5.863172 c 0,-5.236779 0.0898,-6.003669 0.84372,-7.17198 1.21182,-1.877866 3.16826,-3.090966 4.40554,-2.731809 1.74011,0.505123 2.2099,2.686336 2.08233,9.657802 l -0.11165,6.113236 -1.30321,0.432219 c -0.717,0.237491 -1.30439,0.714262 -1.30439,1.060085 0,0.489106 0.93513,0.62926 4.21163,0.62926 3.32628,0 4.21164,-0.135446 4.21164,-0.644199 0,-0.368966 -0.59902,-0.77428 -1.40308,-0.948651 l -1.40429,-0.305819 -0.009,-5.660661 c -0.0159,-9.257433 -0.70421,-10.989964 -4.51365,-11.355327 -2.37119,-0.227498 -4.33156,0.612086 -5.20462,2.228948 -0.7308,1.353386 -1.10228,1.113554 -1.10228,-0.710817 0,-1.601582 -0.0227,-1.622596 -1.70391,-1.617336 z M 175.026,31.481659 c 0.80968,-0.01841 1.61143,0.33475 2.27621,1.103612 0.85618,0.990231 1.81108,3.76562 1.8179,5.278754 0.002,0.427353 -1.10618,0.580342 -4.20929,0.580342 -4.0626,0 -4.21164,-0.03629 -4.21164,-1.013902 0,-0.557303 0.36284,-1.88189 0.80732,-2.943816 0.79799,-1.906533 2.17004,-2.973588 3.5195,-3.00499 z m 19.73969,7.771362 v 2.393378 c 0,2.857525 -0.77348,5.209953 -2.05292,6.246447 -1.92542,1.559737 -4.81632,0.584313 -5.3339,-1.800806 -0.62374,-2.8742 1.98295,-5.838766 5.7452,-6.534567 z" />
    <path
       style="fill:#000000;stroke-width:2.86975"
       d="m 23.386622,60.30199 c -0.545341,-0.832732 -0.401828,-1.945984 0.780398,-6.05395 0.796751,-2.768478 1.293484,-5.351706 1.103879,-5.740508 -0.54591,-1.119403 -2.351575,0.439202 -2.731551,2.357821 -0.181924,0.918635 -0.544757,1.670246 -0.806294,1.670246 -0.653097,0 -0.601685,-0.43384 0.318645,-2.689281 1.361955,-3.337756 5.072555,-3.580441 5.072555,-0.331738 0,0.890559 -0.480008,3.162495 -1.066677,5.048754 -1.09375,3.516618 -1.376375,6.091156 -0.666669,6.072793 0.779025,-0.02035 1.588832,-1.028478 2.43448,-3.031225 0.711497,-1.685071 0.859776,-1.792267 0.87753,-0.634374 0.05015,3.269633 -3.783545,5.672013 -5.316282,3.331489 z M 2.2376416,53.888332 c -2.28502248,-1.167757 -1.97100674,-6.084063 0.3885967,-6.084063 1.3403443,0 1.9256217,1.81559 1.1153415,3.459885 -0.8612095,1.747641 -0.7926602,1.94735 0.6684211,1.94735 2.1823134,0 3.842972,-3.355148 5.1158116,-10.335811 1.8348835,-10.063077 0.9702995,-13.451457 -2.844096,-11.146263 -1.2061698,0.728934 -2.1737107,2.043245 -2.8287501,3.842584 -1.0626078,2.918889 -1.7955676,3.547299 -1.7955676,1.539447 0,-2.103155 3.5887543,-6.785074 5.5601108,-7.253762 1.8826801,-0.447618 4.8222514,0.981654 5.2333214,2.544513 0.150812,0.573382 0.784311,0.249613 1.955783,-0.999636 0.952996,-1.016252 2.178683,-1.847722 2.723761,-1.847722 1.759863,0 3.626986,1.238909 3.97772,2.639364 0.462283,1.845868 -0.578722,4.119682 -1.886084,4.119682 -1.34034,0 -1.925619,-1.815593 -1.115352,-3.459889 0.864832,-1.754979 0.79411,-1.947348 -0.715818,-1.947348 -2.648741,0 -4.036575,3.413938 -5.813006,14.299421 -0.73729,4.517919 -0.504045,6.484233 0.902544,7.608662 1.459589,1.166795 4.389488,-1.122188 5.49274,-4.291187 0.903201,-2.59438 1.817723,-3.614026 1.817723,-2.026663 0,2.591267 -3.364436,7.241549 -5.628659,7.779866 C 12.748442,54.707964 9.7998552,53.246004 9.397414,51.715953 9.246601,51.142566 8.6131054,51.466341 7.4416338,52.715585 5.6654789,54.609632 4.2661108,54.924981 2.2376347,53.888332 Z M 26.057563,41.793445 c 0,-1.426834 1.381515,-2.418975 1.896864,-1.36224 0.501582,1.028542 -0.158017,2.641732 -1.080123,2.641732 -0.449212,0 -0.816741,-0.575773 -0.816741,-1.279492 z M 21.47463,28.372017 c 1.837143,-7.519863 3.516256,-14.579641 3.516256,-14.784042 0,-0.60221 2.102973,-0.188018 2.427854,0.478165 0.500389,1.02605 -4.658267,15.488714 -5.524627,15.488714 -0.42925,0 -0.594572,-0.466162 -0.419483,-1.182837 z"
       id="GAT1"
       class="formula_x formula" />
    <path
       style="fill:#000000;stroke-width:3.40642"
       d="m 34.987719,46.552006 c 0.345246,-1.422021 25.142413,-1.422021 25.487674,0 0.18605,0.767047 -2.612403,0.982893 -12.74383,0.982893 -10.131441,0 -12.930075,-0.215856 -12.743844,-0.982893 z m 0,-10.222106 c 0.345246,-1.422026 25.142413,-1.422026 25.487674,0 0.18605,0.767046 -2.612403,0.982892 -12.74383,0.982892 -10.131441,0 -12.930075,-0.215855 -12.743844,-0.982892 z"
       id="GAT2 formula"
       class="formula" />
    <path
       style="fill:#000000;stroke-width:3.40642"
       d="m 66.921225,53.878773 c -2.436758,-3.527502 -2.387707,-8.221786 0.146333,-14.006263 2.229344,-5.088813 4.724559,-6.542543 11.229722,-6.542543 4.876587,0 5.21818,0.09711 5.21818,1.483459 0,1.288295 -0.341441,1.483453 -2.596386,1.483453 -2.475114,0 -2.576842,0.07797 -2.177625,1.668891 0.725235,2.889846 0.341829,7.681099 -0.863097,10.784497 -1.651191,4.252918 -3.792546,6.301971 -6.986547,6.685406 -2.337558,0.28064 -2.836417,0.085 -3.970607,-1.5569 z m 5.896491,-0.32235 c 3.384356,-2.894052 5.319824,-13.649412 2.898166,-16.104868 -3.450091,-3.498205 -7.94823,2.491492 -8.201668,10.921232 -0.171894,5.713704 2.093957,7.928227 5.303502,5.183636 z"
       id="path20"
       class="formula_activation formula" />
    <path
       style="fill:#000000;stroke-width:3.40642"
       d="m 94.262727,57.869834 c -5.913994,-6.250836 -7.956968,-15.175389 -5.618896,-24.545601 1.047896,-4.199684 4.66677,-10.02742 7.251516,-11.67768 2.092559,-1.336009 2.33382,-0.624355 0.409864,1.209009 -3.658557,3.486357 -6.138657,10.726495 -6.121112,17.869555 0.01571,6.690492 2.886594,14.774295 6.220847,17.520744 0.73022,0.601516 1.327685,1.311963 1.327685,1.578786 0,1.079112 -1.28375,0.355876 -3.469904,-1.954813 z"
       id="path19 formula"
       class="formula" />
    <path
       style="fill:#000000;stroke-width:3.40642"
       d="m 232.00881,56.645239 c -5.914,-6.250836 -7.95697,-15.175389 -5.6189,-24.545601 1.0479,-4.199684 4.66677,-10.02742 7.25152,-11.67768 2.09256,-1.336009 2.33382,-0.624355 0.40986,1.209009 -3.65855,3.486357 -6.13865,10.726495 -6.12111,17.869555 0.0157,6.690492 2.88659,14.774295 6.22085,17.520744 0.73022,0.601516 1.32768,1.311963 1.32768,1.578786 0,1.079112 -1.28375,0.355876 -3.4699,-1.954813 z"
       id="path19 formula-9"
       class="formula" />
    <path
       style="fill:#000000;stroke-width:4.11056"
       d="m 289.05669,19.155246 c 6.7883,7.929835 9.1333,19.251557 6.44958,31.138644 -1.20282,5.327735 -5.35669,12.720824 -8.32356,14.81435 -2.40192,1.694866 -2.67884,0.792059 -0.47045,-1.533754 4.19941,-4.422806 7.04617,-13.607673 7.02603,-22.669386 -0.018,-8.487584 -3.31333,-18.742727 -7.14052,-22.226884 -0.83817,-0.763085 -1.52396,-1.664361 -1.52396,-2.002854 0,-1.368965 1.47354,-0.451465 3.98288,2.479884 z"
       id="path19 formula-9-9"
       class="formula" />
    <path
       style="fill:#000000;stroke-width:3.40642"
       d="m 277.84861,22.659678 c 6.01668,6.106429 8.2076,14.979737 6.02581,24.404657 -0.97789,4.224207 -4.49912,10.138363 -7.05594,11.850861 -2.06988,1.386388 -2.32291,0.680712 -0.42986,-1.198851 3.59987,-3.574216 5.95908,-10.87292 5.82281,-18.014119 -0.12753,-6.688754 -3.13166,-14.701457 -6.51086,-17.366646 -0.74009,-0.583722 -1.3493,-1.279564 -1.3537,-1.546328 -0.0197,-1.078895 1.27753,-0.386904 3.50174,1.870426 z"
       id="path18 formula"
       class="formula" />
    <path
       style="fill:#000000;stroke-width:0.891045"
       d="m 105.33799,51.369936 c -0.0818,-0.16448 -1.52027,-4.76698 -3.19628,-10.22777 l -3.047322,-9.928707 -1.08548,-0.07177 c -1.08279,-0.07159 -1.08549,-0.07366 -1.08545,-0.837357 l 3e-5,-0.765613 h 4.175672 4.17566 l -3e-5,0.777547 -4e-5,0.777553 h -1.1388 c -0.62635,0 -1.13885,0.06816 -1.13885,0.151441 0,0.172482 4.16389,13.789691 4.24974,13.897883 0.0314,0.03884 0.80149,-2.357354 1.71271,-5.32479 l 1.65677,-5.395334 -0.50117,-1.653164 -0.50118,-1.653165 -1.07822,-0.07125 c -1.04707,-0.06923 -1.07824,-0.0911 -1.07824,-0.75672 v -0.685416 l 4.17568,-0.01105 4.17567,-0.01105 0.059,0.745132 0.0586,0.745128 -1.22114,0.07107 -1.22114,0.07106 2.10309,6.878327 c 1.15674,3.783075 2.15724,6.878321 2.22341,6.878321 0.15457,0 4.23642,-13.389707 4.12488,-13.530327 -0.046,-0.05808 -0.61069,-0.175025 -1.25464,-0.259832 -1.15723,-0.152459 -1.17091,-0.162956 -1.17087,-0.89773 l 4e-5,-0.743467 h 3.13171 3.13173 v 0.744078 c 0,0.727648 -0.0237,0.747134 -1.06391,0.882483 -0.58516,0.07611 -1.09892,0.182562 -1.14171,0.23648 -0.0429,0.05397 -1.46447,4.609224 -3.15924,10.12283 l -3.08144,10.024753 -0.5986,0.07324 c -0.42133,0.05161 -0.67429,-0.06303 -0.8541,-0.386949 -0.14043,-0.253126 -1.19502,-3.542438 -2.34333,-7.309594 -1.14833,-3.767154 -2.13715,-6.849762 -2.19737,-6.850238 -0.0602,-4.71e-4 -1.03323,3.040557 -2.16216,6.757844 -1.12893,3.717283 -2.17058,7.000935 -2.31482,7.297002 -0.29109,0.597987 -1.26386,0.751176 -1.51887,0.239253 z"
       id="path27"
       class="formula_weights formula" />
    <path
       style="fill:#000000;stroke-width:0.344443"
       d="m 260.68691,62.5245 -0.81073,-1.18246 0.36069,-1.053445 c 0.35048,-1.023479 0.38785,-1.053443 1.31495,-1.053443 h 0.95413 v 1.411788 1.411794 h 0.87062 c 0.7917,0 0.96974,-0.127119 1.9652,-1.403452 l 1.09463,-1.403446 1.50821,-6.780899 c 1.21527,-5.463769 1.50819,-7.156465 1.50819,-8.714391 v -1.933495 l -0.95238,0.0087 c -0.95023,0.0087 -0.95653,0.01479 -2.80114,2.630865 l -1.84876,2.621925 0.008,-1.160247 c 0.008,-1.123162 0.0606,-1.221116 1.7367,-3.064768 l 1.73156,-1.90452 1.8107,0.218168 1.81065,0.218168 0.64235,1.246834 0.64235,1.246836 -1.4092,6.91021 c -0.77503,3.800619 -1.46461,7.162443 -1.53235,7.470722 -0.0676,0.308293 -0.84878,1.475944 -1.73568,2.594797 l -1.61249,2.034273 -1.77321,0.305518 c -0.97525,0.168042 -1.97484,0.35065 -2.22137,0.405863 -0.33433,0.07487 -0.65421,-0.200227 -1.25889,-1.082127 z M 237.56523,48.225019 c -0.79722,-0.857277 -0.82979,-0.957002 -0.82979,-2.541369 v -1.649071 l 1.33776,-0.505403 1.33773,-0.505398 0.66859,0.851692 0.66862,0.851691 -0.79591,1.4944 c -0.43776,0.821921 -0.73873,1.650875 -0.66882,1.842126 0.088,0.241058 0.46262,0.347736 1.22097,0.347736 1.05525,0 1.13435,-0.04887 2.2411,-1.384948 0.631,-0.761729 1.24934,-1.635275 1.37419,-1.941218 0.12474,-0.305934 0.78936,-3.203363 1.47678,-6.438721 1.18798,-5.591502 1.24233,-5.989388 1.09884,-8.044114 -0.0952,-1.363895 -0.25254,-2.202598 -0.4264,-2.272621 -0.15144,-0.06104 -0.83144,-0.183903 -1.51101,-0.273057 -1.2105,-0.158794 -1.2649,-0.139974 -2.6767,0.926432 -1.37942,1.041962 -1.48306,1.191419 -2.42216,3.493562 -0.5396,1.322768 -1.05329,2.554815 -1.14156,2.737877 -0.10026,0.20804 -0.25607,-0.136044 -0.41582,-0.917555 l -0.25528,-1.2504 1.16476,-1.78838 c 2.06902,-3.17676 2.28898,-3.408628 3.88758,-4.097957 l 1.49483,-0.644562 1.38115,0.387551 c 1.38075,0.387412 1.64178,0.58989 3.0046,2.330387 l 0.72709,0.928581 1.17771,-1.174017 c 0.64774,-0.645714 1.49998,-1.477582 1.89385,-1.848601 l 0.71618,-0.674586 1.52476,0.39911 c 1.21543,0.318144 1.71794,0.597082 2.47716,1.374944 0.52378,0.536703 0.9524,1.067024 0.9524,1.17849 0,0.111438 -0.31194,0.989437 -0.69322,1.951044 l -0.69317,1.748385 h -0.96952 c -0.9661,0 -0.97079,-0.0044 -1.34667,-1.192534 l -0.37723,-1.192524 0.70851,-1.395756 0.70847,-1.395757 -1.52575,0.0055 -1.52575,0.0055 -1.23184,1.817933 -1.23186,1.817937 -1.39472,6.588359 c -0.76712,3.623597 -1.39767,6.784521 -1.40125,7.024279 -0.004,0.239762 0.26945,0.951027 0.60632,1.580606 0.55305,1.033088 0.71987,1.168813 1.71122,1.392034 l 1.0984,0.247347 1.59416,-1.273549 c 1.34581,-1.075196 1.67966,-1.488166 2.14323,-2.651498 1.44113,-3.616444 1.31472,-3.417013 1.90758,-3.009139 l 0.53205,0.366094 -0.69498,1.573755 c -0.39505,0.894488 -1.41493,2.462401 -2.36297,3.632614 l -1.6679,2.058861 h -2.26223 -2.26224 l -1.27962,-1.329595 -1.27962,-1.329593 -1.1027,0.9694 c -0.60651,0.533175 -1.23082,1.13149 -1.3874,1.329598 -0.21557,0.272733 -0.7567,0.360177 -2.22861,0.360177 h -1.94391 z m 32.79674,-12.319074 -0.42891,-0.740546 0.93642,-1.141728 c 0.51502,-0.627952 0.99224,-1.141783 1.06049,-1.141848 0.0684,-6.5e-5 0.44003,0.343992 0.82613,0.764605 l 0.70202,0.76472 -0.79155,1.117668 c -0.97277,1.373525 -1.66217,1.486335 -2.3046,0.377148 z"
       id="path28"
       class="formula_xj formula" />
  </g>
</svg>
