<?xml version="1.0" encoding="UTF-8" standalone="no"?>
<!-- Created with Inkscape (http://www.inkscape.org/) -->

<svg
   width="299"
   height="100"
   viewBox="0 0 299 100"
   version="1.1"
   id="svg1"
   sodipodi:docname="GsageFormula.svg"
   inkscape:version="1.3.2 (091e20e, 2023-11-25)"
   xmlns:inkscape="http://www.inkscape.org/namespaces/inkscape"
   xmlns:sodipodi="http://sodipodi.sourceforge.net/DTD/sodipodi-0.dtd"
   xmlns="http://www.w3.org/2000/svg"
   xmlns:svg="http://www.w3.org/2000/svg">
  <sodipodi:namedview
     id="namedview1"
     pagecolor="#ffffff"
     bordercolor="#000000"
     borderopacity="0.25"
     inkscape:showpageshadow="2"
     inkscape:pageopacity="0.0"
     inkscape:pagecheckerboard="0"
     inkscape:deskcolor="#d1d1d1"
     inkscape:document-units="mm"
     inkscape:zoom="0.93675205"
     inkscape:cx="278.62229"
     inkscape:cy="-76.861321"
     inkscape:window-width="1312"
     inkscape:window-height="449"
     inkscape:window-x="430"
     inkscape:window-y="303"
     inkscape:window-maximized="0"
     inkscape:current-layer="layer1" />
  <defs
     id="defs1" />
  <g
     inkscape:label="Layer 1"
     inkscape:groupmode="layer"
     id="layer1">
    <path
       id="path18"
       style="fill:#000000;stroke-width:0.483153"
       d="m 145.14343,13.673353 c -3.13304,0.05965 -6.19478,2.767128 -6.16594,6.83565 0.0214,3.029911 1.69821,5.379228 4.52875,6.345035 2.32855,0.79451 4.66729,0.229283 6.1717,-1.491373 0.83003,-0.949324 1.21934,-2.546712 0.62044,-2.546712 -0.14706,0 -0.51469,0.498658 -0.81665,1.108116 -0.63829,1.288153 -2.28843,2.365314 -3.62647,2.367106 -2.20342,0.0036 -4.15456,-2.216789 -4.15456,-4.725899 v -1.2766 h 4.40467 c 3.11076,0 4.4435,-0.110709 4.53545,-0.375839 0.25781,-0.744369 -0.31915,-3.157156 -0.94943,-3.969581 -1.2463,-1.606525 -2.90683,-2.301182 -4.54796,-2.269903 z m 13.17356,0.07309 c -2.79892,-0.0054 -5.3556,2.108801 -4.50182,3.912166 0.29725,0.627856 0.56773,0.755118 1.43136,0.674863 0.9362,-0.08689 1.07712,-0.223605 1.16778,-1.128467 0.0709,-0.708793 -0.0561,-1.087677 -0.40978,-1.218271 -0.73811,-0.272599 -0.63521,-0.599425 0.32224,-1.019244 2.33899,-1.025621 4.62763,0.235302 4.977,2.742049 0.19834,1.423083 0.2722,1.377492 -2.85789,1.782961 -3.3575,0.43492 -5.57922,2.269957 -5.58108,4.612037 -0.002,1.283694 0.96227,2.365315 2.50101,2.808708 2.23114,0.64292 4.91884,0.07828 5.75424,-1.209027 0.39947,-0.615584 0.43014,-0.606842 0.99848,0.292538 0.48555,0.768464 0.80374,0.927595 1.85363,0.927595 1.66559,0 2.40453,-0.805456 2.60777,-2.841096 0.13123,-1.313896 0.0674,-1.583021 -0.37611,-1.583021 -0.39356,0 -0.53482,0.296605 -0.53482,1.126622 0,1.339442 -0.49605,2.349532 -1.15432,2.349532 -0.64659,0 -0.77679,-0.779033 -0.89556,-5.372063 -0.0723,-2.798031 -0.24314,-4.162338 -0.58581,-4.678696 -0.73268,-1.103996 -2.39218,-1.962156 -4.15455,-2.148642 -0.18782,-0.01989 -0.37518,-0.03028 -0.56177,-0.03046 z m -27.38024,0.222172 c -1.34653,0 -1.80751,0.170005 -2.87617,1.059049 l -1.27262,1.058118 -1.03696,-1.058118 c -0.92744,-0.94646 -1.22509,-1.059068 -2.80496,-1.058118 -1.83675,0.0013 -3.73938,0.805869 -4.11127,1.738533 -0.33934,0.851049 -0.77437,0.495452 -0.77437,-0.633211 0,-1.090883 -0.019,-1.105214 -1.39574,-1.101632 -0.7675,0.0018 -1.72819,0.08957 -2.13452,0.194405 -0.98649,0.254417 -0.95412,1.064603 0.0423,1.064603 1.39811,0 1.54216,0.5555 1.44481,5.57297 l -0.0913,4.697201 -1.06677,0.301782 c -0.5869,0.166244 -1.06774,0.486226 -1.06774,0.710977 0,0.308321 0.84705,0.409177 3.44753,0.409177 2.68206,0 3.44756,-0.09548 3.44756,-0.428614 0,-0.235553 -0.47986,-0.561268 -1.06677,-0.723929 l -1.06679,-0.295315 v -3.99364 c 0,-3.566997 0.0735,-4.089337 0.69066,-4.885138 0.99197,-1.27909 2.5925,-2.10538 3.60529,-1.860744 1.42444,0.344059 1.80994,1.82977 1.70552,6.578313 l -0.0914,4.163986 -1.06772,0.294383 c -0.58691,0.161765 -1.06679,0.486531 -1.06679,0.722084 0,0.33315 0.7655,0.428614 3.44756,0.428614 2.72278,0 3.44753,-0.09226 3.44753,-0.438807 0,-0.251317 -0.49132,-0.527393 -1.14949,-0.646164 l -1.14855,-0.208288 v -3.808497 c 0,-5.033951 0.66437,-6.437812 3.34848,-7.072655 0.69016,-0.163198 1.07178,-0.03135 1.72376,0.596184 0.82249,0.792199 0.83784,0.885729 0.83784,5.545168 v 4.7398 l -1.1495,0.208288 c -0.65818,0.118771 -1.14952,0.394847 -1.14952,0.646164 0,0.346568 0.72477,0.438807 3.44756,0.438807 2.68204,0 3.44753,-0.09548 3.44753,-0.428614 0,-0.235553 -0.47987,-0.560499 -1.06677,-0.722084 l -1.06676,-0.293469 -0.17126,-4.728676 c -0.0938,-2.600779 -0.29642,-4.982824 -0.45017,-5.293384 -0.43282,-0.874373 -1.97661,-1.489509 -3.73997,-1.489509 z m 39.57555,0.0054 c -0.7675,0.0018 -1.7282,0.08957 -2.13451,0.194404 -0.98648,0.254417 -0.95416,1.064602 0.0423,1.064602 1.39809,0 1.54122,0.555483 1.44387,5.572954 l -0.0904,4.697201 -1.06774,0.3018 c -0.58689,0.166242 -1.06678,0.486207 -1.06678,0.710959 0,0.30832 0.84703,0.409177 3.44754,0.409177 2.68206,0 3.44756,-0.09548 3.44756,-0.428614 0,-0.235554 -0.48085,-0.561269 -1.06775,-0.72393 l -1.06677,-0.295315 v -3.99364 c 0,-3.566978 0.0735,-4.089337 0.69065,-4.88512 0.99197,-1.279089 2.59346,-2.10538 3.60626,-1.860744 1.42441,0.34406 1.80897,1.82977 1.70454,6.578313 l -0.0914,4.163969 -1.06677,0.294401 c -0.58692,0.161764 -1.06774,0.486512 -1.06774,0.722066 0,0.333149 0.76547,0.428614 3.44753,0.428614 2.72281,0 3.44754,-0.09226 3.44754,-0.43879 0,-0.251317 -0.49034,-0.527392 -1.14852,-0.646164 l -1.14952,-0.208305 -0.007,-3.855701 c -0.013,-6.305606 -0.57645,-7.485702 -3.69476,-7.734565 -1.94099,-0.154958 -3.5457,0.416916 -4.26036,1.518225 -0.59822,0.921845 -0.9023,0.758486 -0.9023,-0.484166 0,-1.090901 -0.0186,-1.105214 -1.39478,-1.101631 z m -25.26978,0.624846 c 0.66278,-0.01254 1.31907,0.228011 1.86325,0.751714 0.70084,0.674485 1.4825,2.564913 1.48808,3.595569 0.002,0.291087 -0.90549,0.395294 -3.44562,0.395294 -3.32553,0 -3.44753,-0.02472 -3.44753,-0.690609 0,-0.379602 0.29701,-1.28183 0.66085,-2.00515 0.65321,-1.298616 1.77633,-2.02543 2.88097,-2.046818 z m 16.15839,5.293383 v 1.630225 c 0,1.946374 -0.63315,3.548706 -1.68046,4.254704 -1.5761,1.062398 -3.94251,0.397999 -4.3662,-1.226601 -0.51057,-1.957732 1.6232,-3.977015 4.70288,-4.450953 z"
       class="formula formula_summation" />
    <path
       style="fill:#000000;stroke-width:2.14285"
       d="m 21.114465,34.229514 c -0.446402,-0.567207 -0.328926,-1.325487 0.638814,-4.123586 0.6522,-1.88572 1.058813,-3.64526 0.903607,-3.910088 -0.446868,-0.76247 -1.924939,0.299158 -2.235977,1.606005 -0.148919,0.625719 -0.445924,1.137672 -0.660012,1.137672 -0.534608,0 -0.492523,-0.295506 0.260835,-1.831777 1.114861,-2.273479 4.152262,-2.43878 4.152262,-0.22596 0,0.606595 -0.392922,2.154101 -0.873154,3.438907 -0.895315,2.395309 -1.126665,4.148929 -0.545719,4.136421 0.63769,-0.01386 1.300577,-0.700538 1.992803,-2.064687 0.582413,-1.14777 0.70379,-1.220785 0.718323,-0.432099 0.04105,2.227078 -3.097111,3.863434 -4.351771,2.269211 z M 3.8024585,29.860917 c -1.87046,-0.795406 -1.6134149,-4.144098 0.3180952,-4.144098 1.0971711,0 1.576264,1.236671 0.9129896,2.356665 -0.7049637,1.190389 -0.648851,1.326419 0.5471522,1.326419 1.7863851,0 3.145757,-2.285326 4.1876706,-7.040133 1.5019879,-6.854361 0.7942619,-9.162321 -2.3281033,-7.592163 -0.9873392,0.496507 -1.7793431,1.391736 -2.3155413,2.617337 -0.8698232,1.988172 -1.469805,2.416207 -1.469805,1.048579 0,-1.432543 2.9376611,-4.621584 4.5513623,-4.940826 1.541113,-0.30489 3.9473702,0.668643 4.2838612,1.733169 0.123451,0.390554 0.642017,0.170021 1.600953,-0.680892 0.780098,-0.69221 1.783414,-1.258557 2.229601,-1.258557 1.440578,0 2.968956,0.843871 3.256057,1.797776 0.378414,1.257294 -0.473726,2.806079 -1.543899,2.806079 -1.097167,0 -1.576261,-1.236673 -0.912998,-2.356668 0.707929,-1.195386 0.650038,-1.326416 -0.58595,-1.326416 -2.16819,0 -3.304235,2.325369 -4.758375,9.739905 -0.603527,3.077333 -0.412598,4.416668 0.738798,5.182561 1.194782,0.794751 3.593122,-0.764367 4.496215,-2.922897 0.739337,-1.767136 1.48794,-2.461657 1.48794,-1.380441 0,1.765015 -2.754039,4.932507 -4.607474,5.299176 -1.484681,0.293709 -3.8983179,-0.70209 -4.2277456,-1.744269 -0.1234512,-0.390556 -0.6420147,-0.17002 -1.600951,0.680889 -1.4539142,1.290111 -2.5994007,1.504907 -4.2598585,0.798805 z M 23.300828,21.622609 c 0,-0.971874 1.130873,-1.647661 1.552724,-0.927876 0.410582,0.70058 -0.129349,1.799388 -0.884161,1.799388 -0.367713,0 -0.668563,-0.392182 -0.668563,-0.871512 z m -3.75147,-9.141869 c 1.503838,-5.1220781 2.878316,-9.9307729 2.878316,-10.0699993 0,-0.4101888 1.721439,-0.1280664 1.987379,0.3256972 0.409605,0.6988836 -3.813137,10.5499791 -4.522317,10.5499791 -0.351373,0 -0.486701,-0.317521 -0.343378,-0.805677 z"
       id="GAT1"
       class="formula_x formula" />
    <path
       style="fill:#000000;stroke-width:2.54358"
       d="m 30.610822,24.863854 c 0.282609,-0.968596 20.580927,-0.968596 20.863548,0 0.152296,0.522466 -2.138445,0.669487 -10.431768,0.669487 -8.293334,0 -10.584224,-0.147029 -10.43178,-0.669487 z m 0,-6.962683 c 0.282609,-0.968599 20.580927,-0.968599 20.863548,0 0.152296,0.522465 -2.138445,0.669486 -10.431768,0.669486 -8.293334,0 -10.584224,-0.147028 -10.43178,-0.669486 z"
       id="GAT2 formula"
       class="formula" />
    <path
       style="fill:#000000;stroke-width:2.54358"
       d="m 56.750761,29.854406 c -1.994667,-2.402722 -1.954515,-5.600186 0.119785,-9.540223 1.824883,-3.466192 3.867401,-4.456386 9.192358,-4.456386 3.991847,0 4.271467,0.06614 4.271467,1.010443 0,0.877509 -0.279495,1.010438 -2.125334,1.010438 -2.026065,0 -2.109336,0.05311 -1.782548,1.136748 0.593659,1.96839 0.279813,5.231902 -0.706509,7.34575 -1.351621,2.896832 -3.104479,4.292524 -5.719006,4.553696 -1.913463,0.191155 -2.321816,0.0579 -3.250236,-1.060466 z m 4.826714,-0.219566 c 2.770346,-1.971254 4.35467,-9.297157 2.372364,-10.969665 -2.824155,-2.382767 -6.506215,1.697053 -6.713673,7.438885 -0.140708,3.891831 1.714059,5.40023 4.341309,3.53078 z"
       id="path20"
       class="formula_activation formula" />
    <path
       style="fill:#000000;stroke-width:2.54358"
       d="m 79.131805,32.572876 c -4.841043,-4.257693 -6.513368,-10.33656 -4.599483,-16.718985 0.857781,-2.860572 3.820097,-6.8300743 5.935902,-7.9541323 1.712915,-0.9100089 1.910405,-0.4252728 0.335505,0.8235044 -2.9948,2.3746969 -5.024945,7.3062419 -5.010584,12.1716639 0.01286,4.55716 2.362892,10.06336 5.092224,11.934076 0.59774,0.409716 1.086809,0.89363 1.086809,1.075374 0,0.735026 -1.050844,0.242401 -2.840373,-1.331501 z"
       id="path19 formula"
       class="formula" />
    <path
       style="fill:#000000;stroke-width:3.1514"
       d="m 286.25292,5.7448355 c 5.99605,5.2767225 8.06737,12.8104975 5.69686,20.7204825 -1.06244,3.545217 -4.73152,8.464775 -7.35213,9.857862 -2.1216,1.12781 -2.3662,0.527058 -0.41555,-1.0206 3.70932,-2.943053 6.22382,-9.054907 6.20603,-15.084813 -0.0159,-5.647864 -2.92663,-12.4719097 -6.30715,-14.7903601 -0.74036,-0.5077765 -1.3461,-1.1075098 -1.3461,-1.3327523 0,-0.9109459 1.30156,-0.3004173 3.51804,1.6501809 z"
       id="path19 formula-2"
       class="formula" />
    <path
       style="fill:#000000;stroke-width:2.54358"
       d="m 191.88717,31.738756 c -4.84105,-4.257693 -6.51337,-10.336562 -4.59949,-16.718985 0.85779,-2.860572 3.8201,-6.8300744 5.93591,-7.9541324 1.71291,-0.9100089 1.9104,-0.4252728 0.3355,0.8235044 -2.99479,2.374696 -5.02494,7.306242 -5.01058,12.171664 0.0129,4.55716 2.36289,10.06336 5.09222,11.934075 0.59775,0.409717 1.08681,0.893631 1.08681,1.075374 0,0.735027 -1.05085,0.242402 -2.84037,-1.3315 z"
       id="path19 formula-9"
       class="formula" />
    <path
       style="fill:#000000;stroke-width:2.54358"
       d="m 229.41044,8.5898383 c 4.92509,4.1593327 6.71852,10.2032947 4.93257,16.6229827 -0.80048,2.877275 -3.68287,6.905642 -5.77581,8.072093 -1.69435,0.944323 -1.90147,0.463659 -0.35188,-0.816586 2.94677,-2.43454 4.87796,-7.405978 4.76641,-12.270132 -0.10439,-4.555976 -2.5635,-10.013747 -5.32962,-11.8291129 -0.60582,-0.3975971 -1.1045,-0.8715622 -1.1081,-1.0532659 -0.0161,-0.7348786 1.04574,-0.2635358 2.86643,1.2740211 z"
       id="path18 formula"
       class="formula" />
    <path
       style="fill:#000000;stroke-width:0.665344"
       d="m 88.197727,28.145537 c -0.06696,-0.112034 -1.244454,-3.246979 -2.616392,-6.96654 l -2.494458,-6.762838 -0.888546,-0.04888 c -0.886344,-0.04876 -0.888554,-0.05017 -0.888521,-0.570357 l 2.4e-5,-0.521489 h 3.418097 3.418087 l -2.5e-5,0.529618 -3.2e-5,0.529622 h -0.932192 c -0.512714,0 -0.932233,0.04643 -0.932233,0.103152 0,0.117484 3.408452,9.392707 3.478726,9.466401 0.02571,0.02646 0.656079,-1.605688 1.40198,-3.626926 l 1.356189,-3.674976 -0.410245,-1.126036 -0.410253,-1.126037 -0.882603,-0.04853 c -0.857104,-0.04716 -0.882619,-0.06205 -0.882619,-0.515432 v -0.466865 l 3.418104,-0.0075 3.418086,-0.0075 0.04834,0.507538 0.04796,0.507536 -0.999593,0.04841 -0.999593,0.0484 1.721529,4.685103 c 0.94688,2.576803 1.765863,4.685097 1.820022,4.685097 0.126535,0 3.467824,-9.120261 3.376524,-9.216043 -0.0377,-0.03957 -0.49989,-0.119217 -1.02702,-0.176982 -0.947278,-0.103846 -0.958475,-0.110996 -0.958438,-0.611479 l 2.8e-5,-0.506406 h 2.56354 2.56355 v 0.506822 c 0,0.49563 -0.0194,0.508902 -0.87089,0.601094 -0.47899,0.05184 -0.89954,0.12435 -0.93457,0.161076 -0.0351,0.03676 -1.19877,3.139525 -2.58607,6.895062 l -2.52239,6.828258 -0.489994,0.04988 c -0.34489,0.03515 -0.551964,-0.04293 -0.699149,-0.263567 -0.114954,-0.172414 -0.978215,-2.412895 -1.91818,-4.978855 -0.939993,-2.565958 -1.749418,-4.665645 -1.798713,-4.665969 -0.04928,-3.21e-4 -0.845775,2.071044 -1.769888,4.603036 -0.924113,2.531989 -1.77678,4.768615 -1.894852,4.970278 -0.238278,0.407313 -1.034562,0.511656 -1.243307,0.162965 z"
       id="path27"
       class="formula_weights formula" />
    <path
       style="fill:#000000;stroke-width:0.257196"
       d="m 215.36231,35.743354 -0.66364,-0.805421 0.29526,-0.717543 c 0.28689,-0.697132 0.31748,-0.717542 1.07638,-0.717542 h 0.78102 v 0.961625 0.961629 h 0.71267 c 0.64807,0 0.79381,-0.08659 1.60867,-0.955947 l 0.89603,-0.955942 1.23458,-4.618741 c 0.99479,-3.72159 1.23456,-4.874552 1.23456,-5.935718 v -1.31698 l -0.77959,0.006 c -0.77783,0.006 -0.78299,0.01007 -2.29294,1.791986 l -1.51335,1.785898 0.007,-0.790291 c 0.007,-0.76503 0.0496,-0.831751 1.42161,-2.087535 l 1.41741,-1.297244 1.4822,0.148603 1.48215,0.148602 0.5258,0.849269 0.52581,0.84927 -1.15353,4.706818 c -0.63442,2.588753 -1.19889,4.878625 -1.25434,5.088605 -0.0553,0.209991 -0.69479,1.005325 -1.42078,1.76742 l -1.31994,1.385625 -1.45151,0.2081 c -0.79831,0.11446 -1.61656,0.238842 -1.81836,0.276449 -0.27367,0.05099 -0.53551,-0.136382 -1.03049,-0.737079 z m -18.9268,-9.739945 c -0.65259,-0.583925 -0.67925,-0.651852 -0.67925,-1.731027 v -1.123248 l 1.09506,-0.344251 1.09503,-0.344246 0.54729,0.580122 0.54732,0.58012 -0.65152,1.017895 c -0.35833,0.559843 -0.6047,1.124476 -0.54747,1.254745 0.072,0.164194 0.37869,0.236857 0.99945,0.236857 0.8638,0 0.92855,-0.03328 1.83451,-0.943343 0.51652,-0.518844 1.02268,-1.113851 1.12487,-1.322241 0.10211,-0.208384 0.64615,-2.181938 1.20885,-4.385669 0.97245,-3.808594 1.01694,-4.07961 0.89949,-5.479166 -0.0779,-0.929002 -0.20672,-1.500276 -0.34904,-1.547972 -0.12397,-0.04158 -0.6806,-0.125264 -1.23688,-0.18599 -0.99088,-0.108161 -1.03541,-0.09534 -2.19107,0.63103 -1.12916,0.709721 -1.214,0.811523 -1.98272,2.379604 -0.4417,0.90099 -0.8622,1.740186 -0.93445,1.864877 -0.082,0.141704 -0.20961,-0.09267 -0.34038,-0.624984 l -0.20897,-0.851697 0.95345,-1.218136 c 1.69364,-2.163818 1.87369,-2.321753 3.18227,-2.791282 l 1.22362,-0.439037 1.13058,0.263976 c 1.13024,0.263882 1.34391,0.401798 2.45949,1.58732 l 0.59518,0.632493 0.96404,-0.799669 c 0.53022,-0.439822 1.22784,-1.00644 1.55026,-1.259156 l 0.58624,-0.459488 1.24813,0.27185 c 0.99492,0.216701 1.40626,0.406696 2.02774,0.936529 0.42875,0.36557 0.7796,0.726792 0.7796,0.802716 0,0.07591 -0.25534,0.673945 -0.56744,1.328934 l -0.56742,1.190895 h -0.79362 c -0.79082,0 -0.79466,-0.003 -1.10235,-0.812282 l -0.30879,-0.812276 0.57997,-0.950705 0.57993,-0.950705 -1.24894,0.0037 -1.24893,0.0038 -1.00836,1.238266 -1.00836,1.23827 -1.14169,4.487593 c -0.62794,2.468176 -1.1441,4.621207 -1.14703,4.784515 -0.004,0.163313 0.22057,0.647783 0.49632,1.076614 0.45272,0.703677 0.58928,0.796125 1.40077,0.94817 l 0.89912,0.168478 1.30493,-0.867465 c 1.10165,-0.732359 1.37493,-1.013649 1.7544,-1.806041 1.17967,-2.463303 1.07619,-2.327463 1.56149,-2.049644 l 0.43553,0.249361 -0.5689,1.071947 c -0.32337,0.609271 -1.15822,1.677239 -1.93426,2.474318 l -1.3653,1.402372 h -1.85181 -1.85181 l -1.04746,-0.90564 -1.04747,-0.905639 -0.90264,0.660297 c -0.49647,0.363167 -1.00751,0.770703 -1.13569,0.905643 -0.17646,0.185768 -0.61941,0.24533 -1.82428,0.24533 h -1.59123 z m 26.84656,-8.391011 -0.35109,-0.504416 0.76652,-0.777676 c 0.42158,-0.427723 0.81223,-0.777713 0.86809,-0.777758 0.056,-4.4e-5 0.3602,0.234307 0.67625,0.520803 l 0.57466,0.520881 -0.64795,0.761289 c -0.79628,0.935562 -1.36061,1.012401 -1.88648,0.25689 z"
       id="path28"
       class="formula_xj formula" />
    <path
       style="fill:#000000;stroke-width:2.43402"
       d="m 250.89752,27.377048 v -5.073207 h -4.61676 -4.61676 v -0.724746 -0.724746 h 4.61676 4.61676 V 15.78114 10.707925 h 0.65953 0.65951 v 5.073215 5.073209 h 4.61676 4.61672 v 0.724746 0.724746 h -4.61672 -4.61676 v 5.073207 5.073213 h -0.65951 -0.65953 z m 22.52482,2.334017 -0.5589,-0.247085 -0.65025,-1.381845 -0.65029,-1.38184 v -1.68912 -1.689122 l 1.53893,-6.540986 1.5389,-6.540976 V 9.2661027 8.2921195 h -0.87938 -0.87937 V 7.8653289 7.4385382 l 0.9893,-0.2913393 0.9893,-0.2913383 1.20911,-0.00653 1.20919,-0.00653 v 0.2818807 0.2818806 l -0.90101,3.9458011 -0.90097,3.945809 -0.22028,0.818533 -0.22029,0.818535 1.71073,-1.02973 1.71076,-1.029726 1.40965,0.641623 1.40961,0.641617 0.63883,1.35744 0.63878,1.357436 v 1.861782 1.86178 l -1.14673,2.528748 -1.14678,2.528743 -1.59346,1.189847 -1.59343,1.189838 -1.54678,-0.03818 -1.54674,-0.03817 z m 4.07502,-1.752732 1.44962,-1.592954 0.49988,-1.909977 0.49998,-1.909981 0.25778,-2.218068 0.2578,-2.218067 -0.50808,-1.04328 -0.50816,-1.043284 h -1.11756 -1.11759 l -1.24381,1.366768 -1.24377,1.366777 -0.48807,1.894574 -0.48808,1.89458 -0.26641,2.684626 -0.26642,2.684622 0.74467,0.818308 0.74469,0.818305 h 0.67207 0.67206 z"
       id="GCN8"
       inkscape:label="GCN8"
       class="formula_bias formula" />
  </g>
</svg>
